<svg class="main-svg" xmlns="http://www.w3.org/2000/svg" xmlns:xlink="http://www.w3.org/1999/xlink" width="700" height="500" style="" viewBox="0 0 700 500"><rect x="0" y="0" width="700" height="500" style="fill: rgb(255, 255, 255); fill-opacity: 1;"/><defs id="defs-031a44"><g class="clips"><clipPath id="clip031a44xyplot" class="plotclip"><rect width="484" height="360"/></clipPath><clipPath class="axesclip" id="clip031a44x"><rect x="80" y="0" width="484" height="500"/></clipPath><clipPath class="axesclip" id="clip031a44y"><rect x="0" y="60" width="700" height="360"/></clipPath><clipPath class="axesclip" id="clip031a44xy"><rect x="80" y="60" width="484" height="360"/></clipPath></g><g class="gradients"/><g class="patterns"/></defs><g class="bglayer"/><g class="layer-below"><g class="imagelayer"/><g class="shapelayer"/></g><g class="cartesianlayer"><g class="subplot xy"><g class="layer-subplot"><g class="shapelayer"/><g class="imagelayer"/></g><g class="minor-gridlayer"><g class="x"/><g class="y"/></g><g class="gridlayer"><g class="x"><path class="xgrid crisp" transform="translate(220.82,0)" d="M0,60v360" style="stroke: rgb(235, 240, 248); stroke-opacity: 1; stroke-width: 1px;"/><path class="xgrid crisp" transform="translate(357.55,0)" d="M0,60v360" style="stroke: rgb(235, 240, 248); stroke-opacity: 1; stroke-width: 1px;"/><path class="xgrid crisp" transform="translate(494.27,0)" d="M0,60v360" style="stroke: rgb(235, 240, 248); stroke-opacity: 1; stroke-width: 1px;"/></g><g class="y"><path class="ygrid crisp" transform="translate(0,380.21)" d="M80,0h484" style="stroke: rgb(235, 240, 248); stroke-opacity: 1; stroke-width: 1px;"/><path class="ygrid crisp" transform="translate(0,338.19)" d="M80,0h484" style="stroke: rgb(235, 240, 248); stroke-opacity: 1; stroke-width: 1px;"/><path class="ygrid crisp" transform="translate(0,296.15999999999997)" d="M80,0h484" style="stroke: rgb(235, 240, 248); stroke-opacity: 1; stroke-width: 1px;"/><path class="ygrid crisp" transform="translate(0,254.13)" d="M80,0h484" style="stroke: rgb(235, 240, 248); stroke-opacity: 1; stroke-width: 1px;"/><path class="ygrid crisp" transform="translate(0,212.1)" d="M80,0h484" style="stroke: rgb(235, 240, 248); stroke-opacity: 1; stroke-width: 1px;"/><path class="ygrid crisp" transform="translate(0,170.07)" d="M80,0h484" style="stroke: rgb(235, 240, 248); stroke-opacity: 1; stroke-width: 1px;"/><path class="ygrid crisp" transform="translate(0,128.04000000000002)" d="M80,0h484" style="stroke: rgb(235, 240, 248); stroke-opacity: 1; stroke-width: 1px;"/></g></g><g class="zerolinelayer"><path class="xzl zl crisp" transform="translate(84.1,0)" d="M0,60v360" style="stroke: rgb(235, 240, 248); stroke-opacity: 1; stroke-width: 2px;"/><path class="yzl zl crisp" transform="translate(0,86.01)" d="M80,0h484" style="stroke: rgb(235, 240, 248); stroke-opacity: 1; stroke-width: 2px;"/></g><g class="layer-between"><g class="shapelayer"/><g class="imagelayer"/></g><path class="xlines-below"/><path class="ylines-below"/><g class="overlines-below"/><g class="xaxislayer-below"/><g class="yaxislayer-below"/><g class="overaxes-below"/><g class="overplot"><g class="xy" transform="translate(80,60)" clip-path="url(#clip031a44xyplot)"><g class="scatterlayer mlayer"><g class="trace scatter trace541d3b" style="stroke-miterlimit: 2; opacity: 1;"><g class="fills"/><g class="errorbars"/><g class="lines"><path class="js-line" d="M0,342L4.1,25.24L8.2,24.06L20.51,24.89L24.61,24.17L28.71,25.25L32.81,23.65L36.92,23.56L41.02,22.46L53.32,22.01L57.42,21.42L77.93,20.91L82.03,22.01L86.14,20.29L90.24,19.75L102.54,19.15L106.64,18.72L114.85,19.15L118.95,18L123.05,26.08L127.15,26.87L131.25,25.69L135.36,26.11L143.56,26.93L147.66,26.49L155.86,24.41L159.97,24.21L176.37,23.46L180.47,24.27L196.88,22.36L200.98,22.92L205.08,22.05L209.19,22.1L213.29,22.03L217.39,21.07L242,20.12L246.1,25.59L250.2,25.18L254.31,25.85L262.51,24.8L266.61,25.05L270.71,25.24L274.81,24.3L278.92,24.78L283.02,23.56L291.22,23.25L295.32,22.94L299.42,23.4L303.53,22.86L328.14,20.93L332.24,21.51L336.34,21.9L340.44,21.15L344.54,20.27L348.64,20.58L356.85,20.44L360.95,18.74L365.05,26.05L369.15,25.98L373.25,26.01L377.36,25.08L385.56,25.64L389.66,24.88L393.76,24.09L397.86,24.16L406.07,22.49L410.17,23.47L414.27,22.72L418.37,22.93L422.47,23.43L426.58,21.73L438.88,21.94L442.98,20.47L451.19,20.64L455.29,21.39L459.39,19.41L463.49,19.62L479.9,20L484,19.19" style="vector-effect: none; fill: none; stroke: rgb(99, 110, 250); stroke-opacity: 1; stroke-width: 2px; opacity: 1;"/></g><g class="points"/><g class="text"/></g><g class="trace scatter tracea42518" style="stroke-miterlimit: 2; opacity: 1;"><g class="fills"/><g class="errorbars"/><g class="lines"><path class="js-line" d="M0,341.93L4.1,341.54L8.2,340.36L20.51,341.19L24.61,340.48L28.71,341.55L32.81,339.95L36.92,339.86L41.02,338.76L53.32,338.31L57.42,337.72L77.93,337.21L82.03,338.31L86.14,336.59L90.24,336.05L102.54,335.46L106.64,335.02L114.85,335.45L118.95,334.31L123.05,334.3L127.15,335.08L131.25,333.9L135.36,334.32L143.56,335.14L147.66,334.7L155.86,332.62L159.97,332.42L176.37,331.68L180.47,332.48L196.88,330.57L200.98,331.12L205.08,330.25L209.19,330.31L213.29,330.23L217.39,329.28L246.1,327.96L250.2,327.54L254.31,328.21L258.41,327.38L266.61,327.42L270.71,327.61L274.81,326.67L278.92,327.15L283.02,325.91L287.12,326.12L295.32,325.3L299.42,325.77L315.83,324.17L319.93,324.3L328.14,323.3L332.24,323.88L336.34,324.27L340.44,323.52L344.54,322.64L348.64,322.94L356.85,322.81L360.95,321.1L365.05,322.2L369.15,322.13L373.25,322.16L377.36,321.23L385.56,321.79L389.66,321.03L393.76,320.24L397.86,320.31L406.07,318.64L410.17,319.62L414.27,318.87L418.37,319.08L422.47,319.58L426.58,317.88L438.88,318.09L442.98,316.62L451.19,316.79L455.29,317.54L459.39,315.56L463.49,315.76L479.9,316.14L484,315.34" style="vector-effect: none; fill: none; stroke: rgb(239, 85, 59); stroke-opacity: 1; stroke-width: 2px; opacity: 1;"/></g><g class="points"/><g class="text"/></g><g class="trace scatter traced25280" style="stroke-miterlimit: 2; opacity: 1;"><g class="fills"/><g class="errorbars"/><g class="lines"><path class="js-line" d="M0,25.63L4.1,25.23L8.2,24.06L20.51,24.89L24.61,24.17L28.71,25.25L32.81,23.65L36.92,23.55L41.02,22.45L53.32,22L57.42,21.42L77.93,20.91L82.03,22L86.14,20.29L90.24,19.74L98.44,19.3L102.54,19.15L110.75,18.74L114.85,19.14L118.95,18L123.05,26.14L127.15,27.19L131.25,26.29L143.56,28.34L147.66,28.17L155.86,26.64L159.97,26.73L176.37,27.07L180.47,28.15L196.88,27.37L200.98,28.2L205.08,27.62L209.19,27.95L213.29,28.15L217.39,27.47L242,28.17L246.1,25.76L250.2,25.54L254.31,26.41L262.51,25.76L266.61,26.21L270.71,26.59L274.81,25.85L278.92,26.52L283.02,25.49L291.22,25.59L295.32,25.47L299.42,26.13L303.53,25.78L328.14,25.03L332.24,25.82L336.34,26.4L340.44,25.84L344.54,25.16L348.64,25.67L356.85,25.92L360.95,24.41L365.05,26.08L369.15,26.24L373.25,26.47L377.36,25.75L385.56,26.74L389.66,26.19L393.76,25.61L397.86,25.91L406.07,24.67L410.17,25.86L414.27,25.31L418.37,25.74L422.47,26.44L426.58,24.95L438.88,25.8L442.98,24.55L451.19,25.14L455.29,26.09L459.39,24.33L463.49,24.74L479.9,25.95L484,25.35" style="vector-effect: none; fill: none; stroke: rgb(0, 204, 150); stroke-opacity: 1; stroke-width: 2px; opacity: 1;"/></g><g class="points"/><g class="text"/></g></g></g></g><g class="zerolinelayer-above"/><path class="xlines-above crisp" d="M0,0" style="fill: none;"/><path class="ylines-above crisp" d="M0,0" style="fill: none;"/><g class="overlines-above"/><g class="xaxislayer-above"><g class="xtick"><text text-anchor="middle" x="0" y="433" transform="translate(84.1,0)" style="font-family: 'Open Sans', verdana, arial, sans-serif; font-size: 12px; fill: rgb(42, 63, 95); fill-opacity: 1; white-space: pre;">0</text></g><g class="xtick"><text text-anchor="middle" x="0" y="433" style="font-family: 'Open Sans', verdana, arial, sans-serif; font-size: 12px; fill: rgb(42, 63, 95); fill-opacity: 1; white-space: pre;" transform="translate(220.82,0)">1000</text></g><g class="xtick"><text text-anchor="middle" x="0" y="433" style="font-family: 'Open Sans', verdana, arial, sans-serif; font-size: 12px; fill: rgb(42, 63, 95); fill-opacity: 1; white-space: pre;" transform="translate(357.55,0)">2000</text></g><g class="xtick"><text text-anchor="middle" x="0" y="433" style="font-family: 'Open Sans', verdana, arial, sans-serif; font-size: 12px; fill: rgb(42, 63, 95); fill-opacity: 1; white-space: pre;" transform="translate(494.27,0)">3000</text></g></g><g class="yaxislayer-above"><g class="ytick"><text text-anchor="end" x="79" y="4.199999999999999" transform="translate(0,380.21)" style="font-family: 'Open Sans', verdana, arial, sans-serif; font-size: 12px; fill: rgb(42, 63, 95); fill-opacity: 1; white-space: pre;">−700</text></g><g class="ytick"><text text-anchor="end" x="79" y="4.199999999999999" style="font-family: 'Open Sans', verdana, arial, sans-serif; font-size: 12px; fill: rgb(42, 63, 95); fill-opacity: 1; white-space: pre;" transform="translate(0,338.19)">−600</text></g><g class="ytick"><text text-anchor="end" x="79" y="4.199999999999999" style="font-family: 'Open Sans', verdana, arial, sans-serif; font-size: 12px; fill: rgb(42, 63, 95); fill-opacity: 1; white-space: pre;" transform="translate(0,296.15999999999997)">−500</text></g><g class="ytick"><text text-anchor="end" x="79" y="4.199999999999999" style="font-family: 'Open Sans', verdana, arial, sans-serif; font-size: 12px; fill: rgb(42, 63, 95); fill-opacity: 1; white-space: pre;" transform="translate(0,254.13)">−400</text></g><g class="ytick"><text text-anchor="end" x="79" y="4.199999999999999" style="font-family: 'Open Sans', verdana, arial, sans-serif; font-size: 12px; fill: rgb(42, 63, 95); fill-opacity: 1; white-space: pre;" transform="translate(0,212.1)">−300</text></g><g class="ytick"><text text-anchor="end" x="79" y="4.199999999999999" style="font-family: 'Open Sans', verdana, arial, sans-serif; font-size: 12px; fill: rgb(42, 63, 95); fill-opacity: 1; white-space: pre;" transform="translate(0,170.07)">−200</text></g><g class="ytick"><text text-anchor="end" x="79" y="4.199999999999999" style="font-family: 'Open Sans', verdana, arial, sans-serif; font-size: 12px; fill: rgb(42, 63, 95); fill-opacity: 1; white-space: pre;" transform="translate(0,128.04000000000002)">−100</text></g><g class="ytick"><text text-anchor="end" x="79" y="4.199999999999999" style="font-family: 'Open Sans', verdana, arial, sans-serif; font-size: 12px; fill: rgb(42, 63, 95); fill-opacity: 1; white-space: pre;" transform="translate(0,86.01)">0</text></g></g><g class="overaxes-above"/></g></g><g class="polarlayer"/><g class="smithlayer"/><g class="ternarylayer"/><g class="geolayer"/><g class="funnelarealayer"/><g class="pielayer"/><g class="iciclelayer"/><g class="treemaplayer"/><g class="sunburstlayer"/><g class="glimages"/><defs id="topdefs-031a44"><g class="clips"/><clipPath id="legend031a44"><rect width="114" height="86" x="0" y="0"/></clipPath></defs><g class="layer-above"><g class="imagelayer"/><g class="shapelayer"/></g><g class="infolayer"><g class="legend" pointer-events="all" transform="translate(573.6800000000001,60)"><rect class="bg" shape-rendering="crispEdges" style="stroke: rgb(68, 68, 68); stroke-opacity: 1; fill: rgb(255, 255, 255); fill-opacity: 1; stroke-width: 0px;" width="114" height="86" x="0" y="0"/><g class="scrollbox" transform="" clip-path="url(#legend031a44)"><text class="legendtitletext" text-anchor="start" x="2" y="18.2" style="font-family: 'Open Sans', verdana, arial, sans-serif; font-size: 14px; fill: rgb(42, 63, 95); fill-opacity: 1; white-space: pre; opacity: 1;">Endpoint Type</text><g class="groups" transform=""><g class="traces" transform="translate(0,32.7)" style="opacity: 1;"><text class="legendtext" text-anchor="start" x="40" y="4.680000000000001" style="font-family: 'Open Sans', verdana, arial, sans-serif; font-size: 12px; fill: rgb(42, 63, 95); fill-opacity: 1; white-space: pre;">Simple</text><g class="layers" style="opacity: 1;"><g class="legendfill"/><g class="legendlines"><path class="js-line" d="M5,0h30" style="fill: none; stroke: rgb(99, 110, 250); stroke-opacity: 1; stroke-width: 2px;"/></g><g class="legendsymbols"><g class="legendpoints"/></g></g><rect class="legendtoggle" x="0" y="-9.5" width="108.390625" height="19" style="fill: rgb(0, 0, 0); fill-opacity: 0;"/></g></g><g class="groups" transform=""><g class="traces" transform="translate(0,51.7)" style="opacity: 1;"><text class="legendtext" text-anchor="start" x="40" y="4.680000000000001" style="font-family: 'Open Sans', verdana, arial, sans-serif; font-size: 12px; fill: rgb(42, 63, 95); fill-opacity: 1; white-space: pre;">Unadjusted</text><g class="layers" style="opacity: 1;"><g class="legendfill"/><g class="legendlines"><path class="js-line" d="M5,0h30" style="fill: none; stroke: rgb(239, 85, 59); stroke-opacity: 1; stroke-width: 2px;"/></g><g class="legendsymbols"><g class="legendpoints"/></g></g><rect class="legendtoggle" x="0" y="-9.5" width="108.390625" height="19" style="fill: rgb(0, 0, 0); fill-opacity: 0;"/></g></g><g class="groups" transform=""><g class="traces" transform="translate(0,70.7)" style="opacity: 1;"><text class="legendtext" text-anchor="start" x="40" y="4.680000000000001" style="font-family: 'Open Sans', verdana, arial, sans-serif; font-size: 12px; fill: rgb(42, 63, 95); fill-opacity: 1; white-space: pre;">LastError</text><g class="layers" style="opacity: 1;"><g class="legendfill"/><g class="legendlines"><path class="js-line" d="M5,0h30" style="fill: none; stroke: rgb(0, 204, 150); stroke-opacity: 1; stroke-width: 2px;"/></g><g class="legendsymbols"><g class="legendpoints"/></g></g><rect class="legendtoggle" x="0" y="-9.5" width="108.390625" height="19" style="fill: rgb(0, 0, 0); fill-opacity: 0;"/></g></g></g><rect class="scrollbar" rx="20" ry="3" width="0" height="0" style="fill: rgb(128, 139, 164); fill-opacity: 1;" x="0" y="0"/></g><g class="g-gtitle"/><g class="g-xtitle"><text class="xtitle" x="322" y="460.3" text-anchor="middle" style="opacity: 1; font-family: 'Open Sans', verdana, arial, sans-serif; font-size: 14px; fill: rgb(42, 63, 95); fill-opacity: 1; white-space: pre;">Experiment Runtime (s)</text></g><g class="g-ytitle"><text class="ytitle" transform="rotate(-90,26.88125,240)" x="26.88125" y="240" text-anchor="middle" style="opacity: 1; font-family: 'Open Sans', verdana, arial, sans-serif; font-size: 14px; fill: rgb(42, 63, 95); fill-opacity: 1; white-space: pre;">Error (ms)</text></g></g></svg>